<?xml version="1.0" standalone="no"?>
<!DOCTYPE svg PUBLIC "-//W3C//DTD SVG 20010904//EN"
 "http://www.w3.org/TR/2001/REC-SVG-20010904/DTD/svg10.dtd">
<svg version="1.0" xmlns="http://www.w3.org/2000/svg"
 width="1000.000000pt" height="1000.000000pt" viewBox="0 0 1000.000000 1000.000000"
 preserveAspectRatio="xMidYMid meet">

<g transform="translate(0.000000,600.000000) scale(0.100000,-0.100000)"
fill="#000000" stroke="none">
<path d="M566 5051 c-4 -6 -16 -11 -27 -11 -10 0 -19 -7 -19 -15 0 -9 -8 -19
-17 -22 -10 -4 -23 -14 -30 -23 -21 -29 -70 -45 -99 -31 -14 6 -33 11 -42 11
-9 0 -30 7 -46 15 -33 18 -60 19 -87 4 -11 -6 -56 -12 -101 -15 -44 -2 -84 -7
-89 -10 -5 -3 -9 -16 -9 -29 0 -25 25 -45 55 -45 9 0 23 -7 32 -15 8 -9 28
-18 43 -22 15 -3 46 -24 68 -47 34 -36 41 -50 52 -116 9 -56 9 -90 1 -134 -15
-83 -16 -1131 -1 -1256 16 -126 -3 -160 -91 -160 -16 0 -38 -9 -49 -20 -11
-11 -29 -20 -40 -20 -13 0 -24 -10 -30 -26 -14 -37 -13 -43 12 -54 50 -22 84
-48 106 -81 13 -19 27 -35 33 -37 5 -2 9 -12 9 -22 0 -10 6 -20 14 -23 8 -3
22 -32 31 -63 14 -50 15 -70 5 -158 -10 -82 -10 -446 0 -711 0 -11 -2 -107 -6
-213 -6 -174 -8 -194 -25 -203 -11 -5 -19 -16 -19 -24 0 -8 -7 -15 -15 -15 -9
0 -27 -7 -40 -16 -14 -9 -42 -17 -62 -18 -92 -6 -83 3 -83 -86 l0 -80 1128 2
c1059 3 1130 4 1146 21 10 9 26 17 36 17 10 0 25 8 32 18 7 10 21 21 31 25 9
3 17 13 17 21 0 7 9 16 20 19 11 3 20 12 20 21 0 9 7 16 15 16 8 0 17 11 21
24 3 14 14 32 25 42 10 9 19 25 19 34 0 10 9 20 20 23 12 3 20 14 20 26 0 12
9 29 20 38 11 10 20 24 20 33 0 8 9 26 20 40 11 14 20 32 20 40 0 8 9 26 20
40 11 14 20 32 20 41 0 9 9 28 20 42 11 14 20 32 20 41 0 9 9 33 20 53 11 21
20 56 20 78 0 22 8 54 17 70 21 39 25 263 5 288 -7 8 -16 42 -19 74 -3 32 -14
72 -24 89 -11 17 -19 39 -19 49 0 9 -9 28 -20 42 -11 14 -20 32 -20 39 0 7 -9
18 -20 24 -11 6 -20 15 -20 21 0 14 -127 139 -141 139 -6 0 -22 9 -36 20 -14
11 -32 20 -39 20 -7 0 -18 9 -24 20 -6 11 -19 20 -29 20 -10 0 -30 9 -44 20
-14 11 -37 20 -51 20 -15 0 -36 9 -48 20 -12 11 -32 20 -44 20 -12 0 -33 9
-47 20 -14 11 -32 20 -41 20 -16 0 -46 37 -46 56 0 7 15 16 33 20 17 3 43 15
56 25 13 11 32 19 43 19 10 0 21 7 24 15 3 8 21 19 40 25 19 6 34 18 34 26 0
8 8 14 19 14 10 0 21 9 24 20 3 11 12 20 20 20 8 0 17 9 20 20 3 11 12 20 21
20 9 0 16 8 16 18 0 9 9 23 20 30 11 7 20 18 20 26 0 7 9 21 20 31 11 10 20
26 20 37 0 10 5 18 11 18 5 0 17 17 26 38 8 20 21 41 29 45 8 4 14 16 14 26 0
10 9 26 20 36 12 11 20 31 20 51 0 21 6 37 18 43 15 8 17 30 20 173 2 127 -1
175 -13 218 -9 30 -21 93 -25 139 -6 50 -15 90 -25 101 -8 9 -15 29 -15 44 0
15 -9 39 -20 53 -11 14 -20 34 -20 45 0 10 -7 21 -15 24 -8 3 -19 21 -25 40
-6 19 -18 34 -26 34 -8 0 -14 9 -14 19 0 11 -9 23 -20 26 -11 3 -20 13 -20 21
0 8 -9 14 -20 14 -11 0 -20 7 -20 15 0 9 -7 18 -15 21 -8 4 -29 19 -45 34 -16
15 -45 35 -65 44 -19 9 -35 21 -35 26 0 5 -16 12 -35 16 -19 3 -39 13 -43 21
-5 8 -35 18 -71 23 -35 5 -71 16 -80 24 -10 9 -26 16 -36 16 -17 0 -75 24
-140 58 -21 12 -84 18 -241 25 -249 12 -442 1 -472 -26 -10 -9 -31 -17 -46
-17 -14 0 -29 -7 -32 -15 -3 -8 -21 -19 -39 -25 -18 -6 -36 -17 -39 -25 -6
-16 -86 -22 -86 -6 0 5 -16 16 -35 25 -19 9 -35 21 -35 27 0 5 -11 14 -25 19
-14 5 -25 13 -25 17 0 5 -16 17 -35 27 -19 11 -35 23 -35 28 0 4 -10 8 -23 8
-13 0 -28 5 -34 11 -8 8 -13 8 -17 0z m1224 -221 c0 -17 51 -60 71 -60 22 0
31 -13 23 -34 -9 -23 -45 -20 -51 4 -3 11 -11 20 -18 20 -7 0 -15 -9 -18 -20
-8 -29 -33 -24 -58 12 l-23 31 22 15 c12 8 22 21 22 28 0 8 7 14 15 14 8 0 15
-5 15 -10z m-320 -60 c69 -19 151 -61 158 -81 2 -5 10 -9 18 -9 15 0 144 -122
144 -136 0 -4 11 -22 25 -40 14 -18 25 -39 25 -46 0 -8 6 -22 14 -33 7 -11 19
-44 25 -74 6 -30 17 -61 24 -69 19 -23 17 -590 -2 -601 -8 -5 -15 -31 -18 -62
-4 -49 -22 -100 -59 -169 -8 -14 -19 -37 -26 -52 -7 -16 -18 -28 -25 -28 -7 0
-13 -7 -13 -15 0 -19 -123 -145 -142 -145 -7 0 -22 -10 -32 -21 -18 -22 -22
-22 -180 -14 -88 5 -204 10 -256 11 -100 1 -140 9 -152 28 -5 6 -8 234 -7 506
0 272 -2 506 -6 520 -3 14 -1 114 4 223 l10 198 29 29 c16 16 41 32 55 35 14
4 28 13 31 21 3 8 20 14 38 15 18 0 49 6 68 14 42 16 185 14 250 -5z m-1015
-107 c14 -15 25 -36 25 -45 0 -14 8 -18 39 -18 22 0 43 -5 47 -11 4 -8 9 -8
17 0 6 6 20 11 30 11 10 0 21 9 24 20 3 11 11 20 18 20 8 0 16 9 20 19 5 16
14 19 56 17 57 -3 69 -14 69 -65 0 -46 -34 -76 -96 -85 -59 -8 -64 -12 -71
-67 -6 -42 -25 -67 -84 -112 -13 -9 -38 -28 -55 -42 -18 -14 -34 -25 -37 -25
-20 0 -57 -51 -57 -78 0 -37 -11 -46 -50 -37 -22 5 -30 12 -30 29 0 12 -9 39
-20 61 -17 34 -20 59 -20 177 0 76 4 138 9 138 9 0 61 73 73 103 12 27 63 22
93 -10z m1679 1 c39 -38 1 -71 -63 -55 -20 6 -27 14 -29 39 -3 31 -2 32 37 32
23 0 46 -7 55 -16z m94 -121 c-4 -39 -28 -42 -28 -4 0 21 5 31 16 31 11 0 14
-8 12 -27z m-3 -216 c0 -39 -19 -38 -23 2 -3 24 0 32 10 29 7 -3 13 -17 13
-31z m-25 -177 c0 -5 10 -10 23 -10 35 0 45 -12 49 -55 3 -36 6 -40 33 -43 16
-2 33 -9 38 -15 4 -7 7 -57 6 -111 -1 -79 1 -101 13 -105 43 -17 65 -47 71
-100 4 -30 11 -59 17 -65 15 -15 12 -36 -5 -36 -8 0 -15 -9 -15 -20 0 -13 -7
-20 -20 -20 -12 0 -20 -7 -20 -16 0 -9 -9 -18 -20 -21 -11 -3 -20 -14 -20 -24
0 -11 -7 -19 -15 -19 -8 0 -24 -9 -35 -20 -11 -11 -31 -20 -45 -20 -18 0 -25
-5 -25 -20 0 -16 -7 -20 -38 -20 -21 0 -43 5 -49 11 -8 8 -17 8 -32 -1 -25
-13 -26 -10 -35 64 -8 62 3 126 20 126 8 0 15 18 19 44 9 61 34 81 99 81 49 0
51 1 54 30 2 25 -2 32 -26 41 -33 13 -48 57 -26 75 8 6 14 20 14 30 0 13 7 19
23 19 12 0 29 4 37 10 12 8 12 10 -3 16 -10 3 -17 17 -17 33 0 42 -13 55 -39
39 -19 -11 -23 -11 -32 5 -6 9 -16 17 -24 17 -15 0 -22 38 -16 83 2 18 9 27
22 27 11 0 19 -4 19 -10z m-1366 -62 c8 -24 6 -32 -19 -58 -22 -23 -38 -30
-67 -30 -33 0 -40 4 -51 33 -13 30 -12 34 12 60 22 23 33 27 71 25 39 -3 46
-7 54 -30z m-278 -95 c14 -45 48 -105 62 -110 8 -4 24 -15 34 -25 22 -22 25
-86 3 -94 -11 -4 -15 -21 -15 -58 0 -44 -4 -56 -26 -75 -37 -32 -57 -24 -66
28 -4 25 -12 49 -18 55 -5 5 -10 18 -10 27 0 10 -9 20 -19 24 -11 3 -22 12
-25 20 -3 8 -12 15 -20 15 -8 0 -17 9 -21 19 -3 10 -15 21 -26 24 -19 5 -20
10 -14 58 4 29 17 66 28 81 18 25 27 28 74 28 42 0 55 -4 59 -17z m42 -518 c2
-37 8 -63 17 -67 7 -5 16 -22 20 -38 4 -17 15 -35 26 -40 10 -6 19 -17 19 -25
0 -8 7 -15 15 -15 8 0 15 -7 15 -15 0 -8 8 -19 19 -24 13 -8 21 -27 26 -66 4
-33 12 -58 20 -61 8 -3 17 -20 21 -37 3 -18 15 -48 24 -67 10 -19 23 -46 30
-60 6 -14 20 -42 30 -62 16 -30 18 -42 8 -68 -6 -18 -8 -65 -6 -108 6 -85 -4
-127 -33 -143 -10 -5 -19 -16 -19 -24 0 -22 -27 -18 -33 4 -5 22 -69 36 -116
26 -22 -5 -38 -1 -60 16 -17 13 -31 28 -31 35 0 6 -7 14 -15 18 -17 6 -21 76
-5 76 6 0 10 7 10 15 0 9 -10 15 -26 15 -14 0 -32 -7 -40 -15 -23 -23 -75 -20
-81 5 -3 11 -9 20 -14 20 -5 0 -9 18 -9 40 0 22 4 40 9 40 5 0 12 18 16 40 4
24 12 40 20 40 8 0 19 18 25 39 5 21 17 42 25 45 8 3 15 11 15 17 0 7 6 17 14
23 24 20 36 94 24 148 -7 28 -17 48 -25 48 -7 0 -13 8 -13 18 0 9 -10 32 -21
51 -19 32 -20 36 -4 47 21 16 47 99 39 129 -4 16 0 26 13 34 36 21 48 9 51
-54z m1176 -351 c19 -7 30 -63 22 -108 -5 -26 -14 -37 -35 -44 -40 -14 -78 -4
-85 21 -24 91 26 159 98 131z m-379 -179 c50 -8 111 -15 137 -15 30 0 60 -7
80 -20 18 -11 43 -20 56 -20 12 0 30 -9 39 -20 10 -11 23 -20 31 -20 7 0 22
-9 34 -20 12 -11 28 -20 35 -20 7 0 17 -9 23 -20 6 -11 17 -20 25 -20 8 0 15
-5 15 -11 0 -7 10 -22 23 -35 34 -35 67 -81 67 -94 0 -7 9 -23 20 -37 11 -14
20 -38 20 -53 0 -15 7 -41 16 -59 9 -18 20 -77 24 -134 5 -56 14 -126 21 -156
17 -78 -12 -303 -46 -356 -7 -11 -16 -35 -19 -52 -4 -17 -13 -37 -21 -43 -7
-6 -16 -26 -19 -45 -4 -21 -13 -35 -21 -35 -8 0 -15 -7 -15 -16 0 -9 -11 -29
-25 -46 -14 -16 -25 -36 -25 -44 0 -8 -7 -14 -16 -14 -9 0 -18 -9 -21 -20 -3
-11 -11 -20 -19 -20 -7 0 -18 -9 -24 -19 -5 -11 -23 -22 -39 -26 -16 -3 -31
-12 -34 -18 -3 -9 -85 -12 -336 -11 -293 1 -333 3 -349 17 -10 10 -24 17 -30
17 -7 0 -12 7 -12 16 0 9 -8 23 -17 30 -16 11 -18 33 -17 216 1 173 4 209 19
243 16 36 18 81 20 480 1 242 3 450 4 463 1 19 7 22 49 23 26 0 63 6 82 13 48
18 157 19 265 1z m975 -77 c17 -18 20 -35 20 -109 0 -73 -3 -90 -18 -101 -10
-7 -21 -21 -25 -30 -3 -10 -13 -18 -22 -18 -8 0 -15 -6 -15 -14 0 -32 -89 -36
-127 -6 -14 11 -36 20 -49 20 -67 0 -89 108 -36 168 25 28 35 32 80 32 42 0
52 3 52 17 0 56 99 85 140 41z m-24 -318 c17 -17 111 -25 128 -11 21 18 32 7
39 -34 9 -53 -6 -82 -45 -90 -63 -14 -77 -33 -78 -101 0 -46 -5 -68 -20 -87
-13 -17 -20 -40 -20 -71 0 -80 -30 -117 -82 -100 -28 8 -38 22 -38 50 0 12 -7
24 -15 28 -18 6 -22 112 -4 118 6 2 18 26 28 54 14 42 15 55 4 80 -6 16 -12
57 -13 92 l0 62 39 0 c22 0 43 5 46 10 8 13 18 13 31 0z m-1692 -75 c11 -8 36
-15 56 -15 43 0 72 -26 90 -82 6 -21 16 -38 21 -38 20 0 7 -48 -20 -74 -24
-23 -28 -32 -19 -46 24 -38 -13 -62 -77 -50 -28 5 -30 8 -33 58 -3 55 -17 69
-28 27 -10 -39 -65 -62 -201 -81 -36 -6 -43 -4 -43 10 0 9 -9 29 -19 44 -20
29 -35 141 -25 191 6 26 11 29 63 35 31 4 65 13 75 21 26 20 134 19 160 0z
m174 -682 c-4 -22 -22 -20 -26 1 -2 10 3 16 13 16 10 0 15 -7 13 -17z m1603
-19 c20 -12 5 -124 -17 -124 -7 0 -16 -16 -19 -37 -11 -64 -16 -73 -36 -73
-10 0 -28 -9 -38 -19 -18 -18 -44 -25 -79 -22 -10 1 -12 24 -10 93 l3 92 32
10 c27 7 34 15 39 45 4 20 12 40 18 44 11 8 90 2 107 -9z m-1914 -143 c3 -11
11 -22 18 -25 7 -2 16 -20 20 -38 9 -39 32 -68 55 -68 12 0 20 -11 24 -31 11
-58 7 -87 -13 -94 -11 -3 -22 -12 -25 -20 -3 -8 -18 -15 -33 -15 -16 0 -44 -5
-63 -10 -48 -14 -89 -4 -100 26 -8 19 -17 24 -45 24 -28 0 -35 -4 -35 -20 0
-13 -7 -20 -19 -20 -14 0 -21 10 -25 35 -7 35 4 66 31 93 7 7 13 25 13 38 0
36 47 75 82 68 36 -7 64 9 76 46 12 34 31 39 39 11z"/>
<path d="M3710 5020 c-6 -11 -17 -20 -25 -20 -8 0 -18 -6 -22 -13 -4 -7 -28
-23 -52 -35 -39 -19 -46 -19 -65 -6 -11 7 -33 14 -47 14 -15 0 -29 6 -31 13
-6 16 -192 16 -233 0 -16 -7 -42 -15 -57 -18 -24 -5 -28 -10 -28 -39 0 -31 3
-34 40 -40 22 -3 40 -10 40 -16 0 -5 16 -12 35 -16 20 -3 40 -15 46 -25 5 -11
16 -19 24 -19 8 0 15 -5 15 -10 0 -6 10 -24 21 -40 19 -26 21 -37 16 -122 -3
-51 -13 -122 -21 -158 -21 -87 -21 -321 0 -415 8 -38 20 -92 25 -120 6 -27 12
-62 15 -76 3 -14 -7 -72 -23 -130 -27 -100 -28 -113 -28 -329 l0 -225 -74 -6
c-53 -4 -77 -10 -86 -22 -7 -9 -20 -17 -29 -17 -12 0 -16 -10 -16 -40 0 -30 4
-40 16 -40 9 0 28 -8 42 -18 15 -10 35 -22 45 -25 9 -4 17 -13 17 -22 0 -8 7
-15 15 -15 9 0 18 -8 22 -17 3 -10 15 -28 27 -41 20 -23 21 -34 22 -295 1
-211 5 -290 17 -352 19 -87 21 -230 7 -340 -5 -38 -14 -150 -20 -249 -6 -115
-14 -184 -22 -194 -22 -26 -75 -42 -143 -42 -74 0 -128 -18 -145 -49 -6 -12
-10 -45 -8 -74 l3 -52 680 -3 c374 -1 690 0 703 3 21 5 32 35 13 35 -5 0 -12
18 -16 40 -4 23 -12 40 -20 40 -8 0 -16 8 -20 19 -4 15 -19 19 -77 23 -40 3
-74 11 -76 17 -2 6 -10 11 -17 11 -27 0 -64 54 -77 110 -8 32 -13 123 -14 215
0 184 -16 437 -40 641 -15 132 -15 151 0 275 23 185 26 199 42 199 8 0 14 7
14 16 0 9 9 18 20 21 10 3 22 14 25 24 9 27 32 23 39 -6 4 -14 24 -51 46 -83
22 -31 40 -65 40 -74 0 -10 7 -18 15 -18 8 0 15 -8 15 -17 0 -10 20 -47 45
-83 25 -36 45 -70 45 -76 0 -7 7 -14 15 -18 8 -3 15 -10 15 -17 0 -6 11 -24
25 -41 14 -16 25 -35 25 -43 0 -7 7 -15 15 -19 8 -3 15 -12 15 -20 0 -9 9 -20
19 -26 11 -5 22 -24 26 -41 4 -17 13 -33 20 -36 8 -2 17 -18 20 -34 4 -16 15
-34 26 -39 10 -6 19 -20 19 -30 0 -11 6 -20 14 -20 8 0 17 -14 21 -30 4 -17
15 -35 26 -40 10 -6 19 -17 19 -24 0 -8 6 -19 14 -25 8 -7 18 -27 22 -44 4
-18 15 -48 25 -67 11 -19 19 -44 19 -56 0 -12 6 -24 14 -27 8 -3 17 -24 21
-46 4 -23 10 -41 15 -41 4 0 13 -21 20 -47 7 -27 20 -56 29 -66 29 -34 27
-237 -2 -237 -7 0 -20 -9 -30 -20 -14 -17 -29 -20 -99 -20 -95 0 -128 -7 -128
-25 0 -7 -7 -15 -15 -19 -18 -7 -21 -86 -3 -104 9 -9 174 -12 680 -12 l668 0
0 79 0 78 -51 6 c-28 4 -62 13 -75 22 -13 8 -30 15 -39 15 -8 0 -15 7 -15 15
0 8 -9 19 -19 25 -11 5 -22 23 -26 39 -3 16 -13 32 -21 35 -8 3 -14 19 -14 36
0 19 -7 34 -20 42 -13 9 -20 24 -20 45 0 23 -6 33 -20 38 -11 3 -20 15 -20 26
0 10 -6 19 -14 19 -8 0 -20 16 -26 35 -6 19 -16 35 -21 35 -5 0 -14 11 -19 25
-5 14 -14 25 -19 25 -11 0 -101 182 -101 205 0 8 -6 18 -14 21 -8 3 -18 24
-21 45 -4 22 -13 43 -21 46 -7 3 -16 21 -20 40 -4 19 -12 37 -20 40 -7 2 -16
18 -19 35 -4 16 -13 32 -20 34 -7 3 -16 16 -19 30 -4 13 -13 24 -21 24 -8 0
-17 14 -21 35 -3 19 -11 35 -18 35 -6 0 -19 17 -28 38 -10 20 -29 55 -43 77
-14 22 -30 50 -35 63 -5 12 -13 22 -17 22 -5 0 -13 8 -18 18 -29 54 -58 91
-66 86 -5 -3 -9 -23 -9 -45 0 -28 6 -42 20 -51 11 -7 20 -20 20 -28 0 -8 7
-24 15 -34 8 -11 15 -37 15 -58 0 -37 -1 -38 -38 -38 -21 0 -46 6 -57 14 -11
7 -37 16 -58 20 -21 4 -41 14 -44 22 -3 7 -11 14 -18 14 -8 0 -17 9 -20 20 -3
11 -11 20 -16 20 -14 0 -69 56 -69 69 0 6 -6 11 -14 11 -19 0 -32 83 -20 119
5 14 23 32 39 41 17 8 33 18 36 23 3 4 28 10 56 14 43 5 56 2 85 -18 18 -13
36 -27 39 -32 7 -10 13 5 24 61 4 17 13 32 20 32 8 0 19 9 25 20 7 13 21 20
41 20 35 0 44 16 30 53 -7 18 -18 27 -32 27 -12 0 -36 9 -53 19 -19 12 -61 22
-108 26 -43 4 -78 11 -78 15 0 4 -11 12 -25 18 -14 7 -25 20 -25 31 0 11 -6
26 -14 34 -8 8 -18 31 -22 51 -3 21 -12 40 -19 43 -7 2 -16 15 -19 27 -3 12
-15 33 -26 46 -11 13 -20 29 -20 37 0 7 -6 13 -14 13 -13 0 -26 41 -26 85 0
12 9 32 20 45 11 13 20 26 20 30 0 4 10 19 23 33 12 14 30 36 40 49 9 12 28
37 42 54 14 18 25 37 25 43 0 6 7 11 15 11 8 0 15 5 15 10 0 6 18 29 40 51 22
22 40 45 40 50 0 5 4 9 9 9 12 0 147 135 154 155 4 8 10 15 15 15 5 0 15 15
23 33 7 17 19 36 26 40 7 4 13 14 13 22 0 8 9 19 19 25 11 5 22 23 26 39 3 16
13 32 21 35 8 3 14 12 14 20 0 9 9 20 20 26 11 6 20 20 20 30 0 11 8 28 18 38
10 10 21 26 25 35 3 9 13 17 22 17 8 0 15 7 15 15 0 7 6 18 14 22 7 4 37 37
66 73 29 36 58 70 65 75 6 6 14 18 18 28 3 9 13 17 22 17 8 0 15 9 15 20 0 12
7 20 16 20 9 0 18 9 21 20 3 11 14 20 24 20 11 0 19 7 19 15 0 9 8 18 18 22 9
3 25 13 34 20 9 8 36 19 60 24 23 6 45 15 49 20 3 6 28 13 55 17 46 7 49 9 52
39 3 28 0 32 -28 38 -17 4 -43 13 -58 21 -35 18 -122 17 -146 -1 -11 -8 -28
-15 -38 -15 -10 0 -26 -9 -35 -20 -21 -24 -43 -26 -43 -5 0 8 -4 15 -9 15 -5
0 -27 17 -48 38 -45 46 -78 57 -96 33 -6 -10 -20 -20 -29 -24 -10 -3 -18 -13
-18 -22 0 -8 -7 -15 -16 -15 -8 0 -22 -7 -30 -15 -9 -8 -26 -15 -39 -15 -12 0
-25 7 -29 15 -3 8 -13 15 -22 15 -9 0 -23 8 -30 18 -10 14 -28 17 -96 16 -73
0 -88 -3 -126 -27 -37 -24 -41 -30 -32 -47 13 -24 41 -40 70 -40 12 0 33 -9
47 -20 14 -11 31 -20 38 -20 15 0 75 -92 75 -115 0 -22 -58 -125 -71 -125 -5
0 -9 -5 -9 -11 0 -6 -11 -25 -25 -43 -14 -17 -33 -42 -42 -54 -10 -13 -25 -31
-34 -40 -9 -10 -19 -25 -22 -34 -4 -10 -13 -18 -22 -18 -8 0 -15 -5 -15 -12 0
-6 -7 -18 -15 -27 -40 -43 -75 -90 -75 -100 0 -6 -7 -11 -15 -11 -9 0 -18 -7
-22 -16 -3 -9 -20 -31 -38 -48 -17 -17 -34 -39 -38 -49 -3 -9 -13 -17 -22 -17
-8 0 -15 -5 -15 -11 0 -6 -11 -24 -25 -41 -14 -16 -25 -36 -25 -44 0 -8 -6
-14 -14 -14 -8 0 -17 -11 -20 -25 -4 -14 -13 -25 -21 -25 -8 0 -15 -6 -15 -14
0 -8 -11 -28 -25 -44 -14 -17 -25 -34 -25 -40 0 -5 -7 -12 -15 -16 -8 -3 -15
-12 -15 -20 0 -9 -9 -20 -20 -26 -11 -6 -20 -17 -20 -25 0 -12 -20 -40 -62
-86 -10 -10 -18 -26 -18 -34 0 -9 -20 -35 -45 -59 -25 -25 -45 -49 -45 -55 0
-6 -7 -11 -15 -11 -8 0 -15 -8 -15 -18 0 -11 -21 -38 -46 -61 -37 -34 -53 -41
-78 -39 -27 3 -32 7 -38 43 -11 63 0 765 12 805 14 44 14 204 0 250 -14 49
-12 160 4 191 7 14 16 42 20 62 9 49 70 112 116 121 44 8 84 41 76 61 -3 8
-10 15 -16 15 -5 0 -19 9 -30 20 -18 18 -33 20 -134 20 -89 0 -116 -3 -126
-15 -7 -8 -33 -21 -59 -29 -40 -11 -49 -11 -71 3 -14 8 -29 21 -33 28 -4 7
-13 13 -20 13 -7 0 -18 9 -25 20 -9 15 -23 20 -57 20 -34 0 -47 -5 -55 -20z
m1606 -406 c28 -30 30 -40 8 -52 -10 -6 -18 -28 -21 -58 -3 -27 -10 -55 -16
-62 -5 -6 -13 -27 -16 -45 -6 -28 -12 -33 -49 -41 -62 -13 -106 2 -110 38 -2
15 3 35 11 44 8 10 18 28 22 42 4 14 25 40 46 58 22 19 39 39 39 47 0 7 9 15
20 18 11 3 20 12 20 21 0 24 19 19 46 -10z m-1266 -29 c0 -8 -4 -15 -9 -15 -5
0 -12 -11 -15 -25 -4 -14 -11 -25 -16 -25 -5 0 -16 -15 -24 -34 -11 -26 -21
-35 -42 -38 -34 -4 -42 -25 -43 -124 -1 -50 -5 -75 -16 -84 -8 -7 -15 -24 -15
-39 0 -36 -11 -71 -21 -71 -13 0 -99 -93 -99 -107 0 -14 -53 -27 -102 -24 -28
2 -40 -2 -50 -18 -7 -12 -19 -21 -26 -21 -7 0 -15 -7 -18 -15 -4 -8 -15 -15
-25 -15 -14 0 -19 7 -19 25 0 14 -9 34 -20 45 -25 25 -26 68 -2 77 9 3 27 18
39 32 30 36 32 119 3 144 -11 9 -20 28 -20 42 0 13 -8 41 -17 61 -17 34 -17
36 0 45 10 6 17 22 17 42 1 44 38 86 83 94 50 8 107 -5 114 -25 12 -32 47 -72
63 -72 8 0 27 21 40 46 31 58 53 73 80 56 29 -18 42 -14 75 23 32 36 85 48 85
20z m-31 -867 c2 -6 13 -20 24 -31 23 -23 34 -102 23 -162 -7 -34 -9 -36 -37
-30 -44 10 -96 -2 -119 -28 -17 -17 -24 -19 -39 -10 -10 6 -37 9 -63 6 -38 -4
-49 -1 -72 20 -24 22 -27 31 -24 78 l3 53 58 19 c33 12 57 25 57 34 0 7 8 16
18 20 9 3 24 12 33 20 36 31 128 38 138 11z m566 -27 c9 -40 -4 -81 -24 -81
-11 0 -25 -16 -37 -40 -17 -37 -22 -40 -54 -38 -31 3 -35 6 -38 35 -3 27 1 34
31 48 30 14 36 23 42 61 6 42 8 44 40 44 29 0 34 -4 40 -29z m-992 -203 c9
-21 22 -38 27 -38 6 0 10 -9 10 -20 0 -11 7 -20 15 -20 9 0 18 -7 22 -16 3 -9
17 -27 31 -41 19 -19 23 -31 18 -56 -4 -17 -10 -35 -15 -40 -17 -17 -128 -24
-154 -10 -32 16 -43 59 -22 83 16 18 12 64 -6 76 -11 6 -12 107 -2 118 4 4 19
6 33 4 18 -2 30 -14 43 -40z m941 -304 c10 -27 7 -52 -9 -58 -22 -8 -22 -151
1 -160 10 -4 14 -15 12 -33 -3 -28 -28 -45 -28 -19 0 9 -8 16 -19 16 -11 0
-23 9 -26 20 -3 11 -15 20 -25 20 -10 0 -20 7 -24 15 -3 8 -18 15 -34 15 -61
0 -96 79 -52 117 11 10 20 23 20 30 0 25 20 13 37 -21 l16 -34 28 20 c15 11
30 31 34 45 3 13 16 28 28 33 31 12 34 12 41 -6z m-1016 -90 c24 -5 31 -12 35
-38 8 -52 -2 -81 -33 -93 -31 -12 -50 -2 -50 27 0 8 -7 24 -15 34 -20 27 -19
63 3 69 27 7 28 7 60 1z m279 -119 c17 -9 33 -22 36 -29 3 -7 25 -15 49 -18
81 -9 121 -74 82 -134 -12 -18 -15 -38 -11 -77 6 -59 -10 -138 -30 -150 -9 -6
-13 -33 -13 -95 -1 -96 -12 -161 -31 -173 -9 -5 -14 -45 -17 -123 l-4 -116 25
-9 c14 -5 28 -15 32 -20 4 -8 12 -8 27 0 14 8 23 8 31 0 14 -14 10 -93 -5
-102 -9 -6 -8 -13 5 -27 25 -27 24 -144 -1 -169 -11 -10 -22 -26 -25 -35 -8
-23 -46 -46 -82 -50 -23 -2 -32 2 -40 20 -12 28 -22 28 -30 1 -5 -16 -12 -19
-28 -14 -12 4 -30 7 -39 6 -10 -1 -28 -1 -40 -1 -13 0 -38 0 -57 0 -55 0 -81
23 -81 74 0 28 7 52 20 69 11 14 20 31 20 37 0 7 8 19 17 25 14 10 18 28 18
77 0 63 0 63 -32 73 -26 7 -34 16 -39 42 -4 21 -1 38 7 47 8 8 28 31 44 52 17
20 38 44 48 53 24 22 23 77 -3 91 -14 8 -20 21 -20 45 0 28 5 37 31 50 28 15
32 15 48 1 26 -24 60 -20 73 8 14 33 4 56 -25 56 -14 0 -30 7 -37 15 -7 8 -18
15 -26 15 -28 0 -64 50 -64 88 0 47 9 61 46 71 l29 7 2 132 c2 126 3 133 29
167 14 19 27 35 29 35 1 0 16 -7 32 -15z m1063 -485 c29 0 50 -31 50 -75 0
-13 6 -28 13 -32 6 -4 17 -17 23 -28 6 -11 24 -22 40 -26 16 -3 39 -11 51 -17
12 -7 31 -12 42 -12 11 0 33 -11 49 -25 17 -14 41 -25 55 -25 13 0 30 -7 37
-15 7 -8 19 -15 26 -15 23 0 35 -47 28 -107 -5 -37 -12 -57 -23 -61 -9 -3 -20
-11 -24 -19 -11 -18 -73 -17 -81 2 -3 8 -12 15 -19 15 -8 0 -21 9 -28 21 -10
15 -29 23 -62 26 -29 4 -47 11 -47 19 0 7 -9 16 -20 19 -11 3 -20 11 -20 17 0
23 -51 58 -85 58 -19 0 -55 11 -81 25 -26 14 -53 25 -60 25 -7 0 -16 15 -20
32 -3 18 -13 37 -21 43 -19 14 -20 105 -1 120 8 5 17 19 21 29 7 17 14 18 69
12 33 -3 73 -6 88 -6z m558 -857 c-5 -25 -28 -28 -28 -4 0 12 6 21 16 21 9 0
14 -7 12 -17z m-112 -58 c4 -25 12 -35 24 -35 10 0 22 -9 25 -20 3 -11 11 -20
17 -20 7 0 7 -61 -2 -107 -1 -11 -20 0 -20 11 0 10 -13 16 -37 18 -33 3 -38 7
-46 37 -5 19 -17 46 -28 59 -24 31 -24 47 1 72 32 32 58 26 66 -15z m-1328
-56 c-2 -6 -8 -10 -13 -10 -5 0 -11 4 -13 10 -2 6 4 11 13 11 9 0 15 -5 13
-11z m-273 -145 c0 -19 -6 -30 -17 -32 -19 -4 -24 21 -12 53 10 25 29 12 29
-21z"/>
</g>
</svg>
